<svg preserveAspectRatio="none" width="100%" height="100%" overflow="visible" style="display: block;" viewBox="0 0 17.9961 16.0039" fill="none" xmlns="http://www.w3.org/2000/svg">
<path id="Union" d="M13.3203 0.414062L13.8428 1.45117H15.9307L16.1562 1.73047L17.6172 3.54395L17.9961 4.01367L17.6172 4.48438L16.1562 6.29785L15.9307 6.57715H14.1309V8.37891L13.8281 8.60449L11.209 10.5537V11.9912L14.5771 14.667L16.2617 16.0039H1.73438L3.41797 14.667L6.78711 11.9902V10.5547L4.16699 8.60449L3.86523 8.37891V6.57715H2.06543L1.83984 6.29785L0.378906 4.48438L0 4.01367L0.378906 3.54395L1.83984 1.73047L2.06543 1.45117H4.15332L4.67578 0.414062L4.88379 0H13.1123L13.3203 0.414062ZM5.36523 2.37988V7.625L7.98535 9.57617L8.28711 9.80078V12.7158L8.00391 12.9404L6.03516 14.5039H11.9609L9.99219 12.9404L9.70898 12.7158V9.80078L10.0107 9.57617L12.6309 7.625V2.37988L12.1885 1.50098H5.80762L5.36523 2.37988ZM1.92578 4.01367L2.78223 5.07715H3.86523V2.95117H2.78223L1.92578 4.01367ZM14.1309 5.07715H15.2139L16.0693 4.01367L15.2139 2.95117H14.1309V5.07715Z" fill="var(--fill-0, white)"/>
</svg>
