<svg preserveAspectRatio="none" width="100%" height="100%" overflow="visible" style="display: block;" viewBox="0 0 15.9971 15.998" fill="none" xmlns="http://www.w3.org/2000/svg">
<path id="Union" d="M8.41211 0.274414L14.8555 4.54004L15.0176 4.64746L15.1074 4.81934L15.9121 6.37109L15.9971 6.5332V14.0156L15.7666 14.2373L14.1562 15.7881L13.9385 15.998H2.05859L1.84082 15.7881L0.229492 14.2373L0 14.0156V6.5332L0.0839844 6.37109L0.889648 4.81934L0.979492 4.64746L1.1416 4.54004L7.58398 0.274414L7.99805 0L8.41211 0.274414ZM2.12988 5.68359L1.5 6.89941V13.377L2.66309 14.498H4.83203V8.72461L5.06152 8.50293L5.86719 7.72754L6.08496 7.51758H9.91113L10.1289 7.72754L10.9346 8.50293L11.1641 8.72461V14.498H13.334L14.4971 13.377V6.89941L13.8643 5.68359L7.99805 1.79785L2.12988 5.68359ZM6.33203 9.36133V14.498H9.66406V9.36035L9.30664 9.01758H6.69043L6.33203 9.36133Z" fill="var(--fill-0, white)"/>
</svg>
