<svg preserveAspectRatio="none" width="100%" height="100%" overflow="visible" style="display: block;" viewBox="0 0 18 16" fill="none" xmlns="http://www.w3.org/2000/svg">
<path id="Union" d="M7.12891 9.25L9 11.1211V11.875H18V13.375H9V14.1289L7.12891 16H4.12109L2.25 14.1289V13.375H0V11.875H2.25V11.1211L4.12109 9.25H7.12891ZM4.74219 10.75L3.75 11.7422V13.5078L4.74219 14.5H6.50781L7.5 13.5078V11.7422L6.50781 10.75H4.74219ZM15.75 1.87109V2.625H18V4.125H15.75V4.87891L13.8789 6.75H10.8711L9 4.87891V4.125H0V2.625H9V1.87109L10.8711 0H13.8789L15.75 1.87109ZM10.5 2.49219V4.25781L11.4922 5.25H13.2578L14.25 4.25781V2.49219L13.2578 1.5H11.4922L10.5 2.49219Z" fill="var(--fill-0, white)"/>
</svg>
