<svg preserveAspectRatio="none" width="100%" height="100%" overflow="visible" style="display: block;" viewBox="0 0 18.002 17.0059" fill="none" xmlns="http://www.w3.org/2000/svg">
<path id="Union" d="M10.0791 0.504883L11.748 5.33789H17.2881L17.4561 5.8584L17.8242 7.00195L18.002 7.55371L17.5137 7.86426L13.1992 10.6104L14.5117 15.0254L14.667 15.5469L14.2188 15.8564L13.1133 16.6191L12.6172 16.9609L12.1768 16.5508L8.95605 13.5527L5.03711 16.5938L4.50586 17.0059L4.03809 16.5225L3.30176 15.7598L2.97266 15.4199L3.1377 14.9775L4.76855 10.5889L0.489258 7.86426L0 7.55371L0.177734 7.00195L0.545898 5.8584L0.713867 5.33789H6.21875L7.54102 0.550781L7.69336 0H9.9043L10.0791 0.504883ZM7.5127 6.28809L7.36035 6.83789H1.80664L1.78223 6.91016L6.08594 9.64941L6.59766 9.97461L6.38672 10.5439L4.76367 14.9072L8.54102 11.9775L9.04492 11.5859L9.5127 12.0205L12.7568 15.041L12.918 14.9297L11.5996 10.4961L11.4385 9.95312L11.916 9.64941L16.2188 6.91016L16.1953 6.83789H10.6787L10.5039 6.33301L8.83496 1.5L7.5127 6.28809Z" fill="var(--fill-0, white)"/>
</svg>
